<?xml version="1.0" encoding="UTF-8"?>
<svg xmlns="http://www.w3.org/2000/svg" xmlns:xlink="http://www.w3.org/1999/xlink" width="118.517998pt" height="118.517998pt" viewBox="0 0 118.517998 118.517998">
<path fill-rule="nonzero" fill="rgb(92.939758%, 10.980225%, 14.117432%)" fill-opacity="1" d="M 0 0 L 118.519531 0 L 118.519531 118.519531 L 0 118.519531 Z M 0 0 "/>
<path fill-rule="nonzero" fill="rgb(100%, 100%, 100%)" fill-opacity="1" d="M 76.191406 70.25 L 77.886719 70.25 L 77.039062 68.78125 L 77.886719 67.316406 L 76.191406 67.316406 L 75.347656 65.851562 L 74.5 67.316406 L 72.808594 67.316406 L 73.652344 68.78125 L 72.808594 70.25 L 74.5 70.25 L 75.347656 71.71875 Z M 76.191406 70.25 "/>
<path fill-rule="nonzero" fill="rgb(100%, 100%, 100%)" fill-opacity="1" d="M 102.6875 70.25 L 104.378906 70.25 L 103.535156 68.78125 L 104.378906 67.316406 L 102.6875 67.316406 L 101.839844 65.851562 L 100.996094 67.316406 L 99.300781 67.316406 L 100.148438 68.78125 L 99.300781 70.25 L 100.996094 70.25 L 101.839844 71.71875 Z M 102.6875 70.25 "/>
<path fill-rule="nonzero" fill="rgb(100%, 100%, 100%)" fill-opacity="1" d="M 83.941406 70.929688 L 83.941406 71.242188 L 82.085938 71.242188 L 82.085938 73.40625 L 84.175781 73.40625 L 84.175781 86.9375 L 79.359375 86.9375 L 79.359375 73.710938 L 71.332031 73.710938 L 71.332031 86.9375 L 68.707031 86.9375 L 68.707031 89.183594 L 108.480469 89.183594 L 108.480469 86.9375 L 105.855469 86.9375 L 105.855469 73.710938 L 97.828125 73.710938 L 97.828125 86.9375 L 93.011719 86.9375 L 93.011719 73.40625 L 95.101562 73.40625 L 95.101562 71.242188 L 93.246094 71.242188 C 93.128906 68.914062 91.972656 66.925781 89.542969 66.386719 L 89.542969 64.046875 L 91.28125 64.046875 L 91.28125 62.425781 L 89.542969 62.425781 L 89.542969 60.441406 L 87.644531 60.441406 L 87.644531 62.425781 L 85.90625 62.425781 L 85.90625 64.046875 L 87.644531 64.046875 L 87.644531 66.394531 C 85.496094 66.894531 83.941406 68.667969 83.941406 70.929688 "/>
<path fill-rule="nonzero" fill="rgb(100%, 100%, 100%)" fill-opacity="1" d="M 88.59375 98.464844 C 85.660156 98.464844 83.285156 100.839844 83.285156 103.769531 L 83.191406 112.660156 L 66.503906 112.660156 C 68.980469 105.773438 70.628906 98.847656 71.140625 91.503906 L 106.046875 91.503906 C 106.558594 98.847656 108.207031 105.773438 110.683594 112.660156 L 93.996094 112.660156 L 93.902344 103.769531 C 93.902344 100.839844 91.523438 98.464844 88.59375 98.464844 "/>
<path fill-rule="nonzero" fill="rgb(100%, 100%, 100%)" fill-opacity="1" d="M 51.597656 38.699219 L 46.84375 38.699219 L 46.84375 25.363281 L 32.949219 25.363281 L 32.949219 28.441406 C 32.949219 35.132812 28.992188 39.140625 21.261719 39.140625 C 13.324219 39.140625 9.574219 35.449219 9.574219 28.574219 L 9.574219 8.984375 L 14.375 8.984375 L 14.375 27.605469 C 14.375 32.390625 16.042969 35.179688 21.308594 35.179688 C 26.488281 35.179688 28.242188 32.390625 28.242188 27.605469 L 28.242188 8.984375 L 32.949219 8.984375 L 32.949219 21.269531 L 46.84375 21.269531 L 46.84375 8.984375 L 51.597656 8.984375 L 51.597656 21.269531 L 65.582031 21.269531 L 65.582031 8.984375 L 70.339844 8.984375 L 70.339844 38.699219 L 65.582031 38.699219 L 65.582031 25.363281 L 51.597656 25.363281 Z M 51.597656 38.699219 "/>
</svg>
