<?xml version="1.0" encoding="UTF-8"?>
<svg xmlns="http://www.w3.org/2000/svg" xmlns:xlink="http://www.w3.org/1999/xlink" width="485pt" height="158pt" viewBox="0 0 485 158">
<path fill-rule="nonzero" fill="rgb(13.729858%, 12.159729%, 12.548828%)" fill-opacity="1" d="M 149.097656 119.921875 C 141.546875 119.921875 139.945312 115.589844 139.945312 110.957031 L 139.945312 94.339844 L 143.828125 94.339844 L 143.828125 110.660156 C 143.828125 114.023438 144.898438 116.5625 149.347656 116.5625 C 153.265625 116.5625 155.046875 114.84375 155.046875 110.136719 L 155.046875 94.339844 L 158.859375 94.339844 L 158.859375 109.839844 C 158.859375 116.5625 155.402344 119.921875 149.097656 119.921875 "/>
<path fill-rule="nonzero" fill="rgb(13.729858%, 12.159729%, 12.548828%)" fill-opacity="1" d="M 176.15625 119.550781 L 176.15625 108.484375 C 176.15625 106.339844 175.570312 105.09375 173.597656 105.09375 C 171.003906 105.09375 169.101562 107.828125 169.101562 111.25 L 169.101562 119.550781 L 165.402344 119.550781 L 165.402344 102.363281 L 168.929688 102.363281 C 168.929688 103.261719 168.859375 104.75 168.6875 105.71875 L 168.722656 105.753906 C 169.726562 103.539062 171.800781 102.019531 174.707031 102.019531 C 178.613281 102.019531 179.820312 104.472656 179.820312 107.515625 L 179.820312 119.550781 Z M 176.15625 119.550781 "/>
<path fill-rule="nonzero" fill="rgb(13.729858%, 12.159729%, 12.548828%)" fill-opacity="1" d="M 186.253906 102.363281 L 189.953125 102.363281 L 189.953125 119.550781 L 186.253906 119.550781 Z M 188.121094 99.804688 C 186.808594 99.804688 185.734375 98.765625 185.734375 97.488281 C 185.734375 96.207031 186.808594 95.171875 188.121094 95.171875 C 189.402344 95.171875 190.472656 96.175781 190.472656 97.488281 C 190.472656 98.765625 189.402344 99.804688 188.121094 99.804688 "/>
<path fill-rule="nonzero" fill="rgb(13.729858%, 12.159729%, 12.548828%)" fill-opacity="1" d="M 204.097656 119.550781 L 200.328125 119.550781 L 193.894531 102.363281 L 197.976562 102.363281 L 201.191406 111.460938 C 201.605469 112.636719 201.988281 113.84375 202.296875 114.984375 L 202.332031 114.984375 C 202.609375 113.914062 202.957031 112.703125 203.335938 111.597656 L 206.621094 102.363281 L 210.597656 102.363281 Z M 204.097656 119.550781 "/>
<path fill-rule="nonzero" fill="rgb(13.729858%, 12.159729%, 12.548828%)" fill-opacity="1" d="M 220.867188 104.75 C 218.792969 104.75 217.339844 106.269531 217.03125 108.589844 L 224.324219 108.589844 C 224.394531 106.234375 223.046875 104.75 220.867188 104.75 M 227.921875 111.179688 L 216.960938 111.179688 C 216.855469 115.15625 218.621094 116.957031 222.042969 116.957031 C 223.808594 116.957031 225.640625 116.542969 227.058594 115.851562 L 227.402344 118.789062 C 225.675781 119.515625 223.566406 119.894531 221.457031 119.894531 C 216.097656 119.894531 213.15625 117.128906 213.15625 111.078125 C 213.15625 105.890625 215.992188 102.015625 221.007812 102.015625 C 225.917969 102.015625 228.027344 105.375 228.027344 109.453125 C 228.027344 109.9375 227.992188 110.523438 227.921875 111.179688 "/>
<path fill-rule="nonzero" fill="rgb(13.729858%, 12.159729%, 12.548828%)" fill-opacity="1" d="M 242.03125 105.648438 C 238.609375 105.027344 236.949219 107.410156 236.949219 112.5625 L 236.949219 119.550781 L 233.246094 119.550781 L 233.246094 102.363281 L 236.773438 102.363281 C 236.773438 103.332031 236.671875 104.851562 236.429688 106.167969 L 236.496094 106.167969 C 237.257812 103.851562 238.988281 101.707031 242.203125 102.019531 Z M 242.03125 105.648438 "/>
<path fill-rule="nonzero" fill="rgb(13.729858%, 12.159729%, 12.548828%)" fill-opacity="1" d="M 249.394531 119.894531 C 248.117188 119.894531 246.835938 119.757812 245.765625 119.550781 L 245.871094 116.402344 C 246.941406 116.714844 248.289062 116.957031 249.601562 116.957031 C 251.609375 116.957031 252.992188 116.09375 252.992188 114.675781 C 252.992188 111.214844 245.453125 113.289062 245.453125 107.34375 C 245.453125 104.367188 247.875 102.019531 252.542969 102.019531 C 253.542969 102.019531 254.722656 102.15625 255.757812 102.328125 L 255.65625 105.339844 C 254.617188 105.027344 253.40625 104.851562 252.300781 104.851562 C 250.261719 104.851562 249.257812 105.683594 249.257812 106.996094 C 249.257812 110.316406 256.867188 108.621094 256.867188 114.328125 C 256.867188 117.542969 253.996094 119.894531 249.394531 119.894531 "/>
<path fill-rule="nonzero" fill="rgb(13.729858%, 12.159729%, 12.548828%)" fill-opacity="1" d="M 262.15625 102.363281 L 265.855469 102.363281 L 265.855469 119.550781 L 262.15625 119.550781 Z M 264.023438 99.804688 C 262.710938 99.804688 261.636719 98.765625 261.636719 97.488281 C 261.636719 96.207031 262.710938 95.171875 264.023438 95.171875 C 265.304688 95.171875 266.375 96.175781 266.375 97.488281 C 266.375 98.765625 265.304688 99.804688 264.023438 99.804688 "/>
<path fill-rule="nonzero" fill="rgb(13.729858%, 12.159729%, 12.548828%)" fill-opacity="1" d="M 278.476562 119.855469 C 274.8125 119.855469 273.707031 118.464844 273.707031 114.703125 L 273.707031 105.523438 L 270.421875 105.523438 L 270.421875 102.710938 L 273.707031 102.710938 L 273.707031 97.355469 L 277.371094 96.375 L 277.371094 102.710938 L 281.898438 102.710938 L 281.898438 105.523438 L 277.40625 105.523438 L 277.40625 113.585938 C 277.40625 116.09375 277.921875 116.769531 279.652344 116.769531 C 280.414062 116.769531 281.242188 116.671875 281.898438 116.5 L 281.898438 119.480469 C 280.898438 119.683594 279.617188 119.855469 278.476562 119.855469 "/>
<path fill-rule="nonzero" fill="rgb(13.729858%, 12.159729%, 12.548828%)" fill-opacity="1" d="M 296.527344 99.113281 C 295.351562 99.113281 294.417969 98.179688 294.417969 97.003906 C 294.417969 95.863281 295.351562 94.929688 296.527344 94.929688 C 297.667969 94.929688 298.601562 95.863281 298.601562 97.003906 C 298.601562 98.179688 297.667969 99.113281 296.527344 99.113281 M 295.835938 111.769531 C 290.441406 111.769531 289.265625 113.394531 289.265625 114.882812 C 289.265625 116.160156 290.164062 116.992188 291.617188 116.992188 C 294.144531 116.992188 295.835938 114.570312 295.835938 112.117188 Z M 289.714844 99.113281 C 288.539062 99.113281 287.640625 98.179688 287.640625 97.003906 C 287.640625 95.863281 288.539062 94.929688 289.714844 94.929688 C 290.890625 94.929688 291.824219 95.863281 291.824219 97.003906 C 291.824219 98.179688 290.890625 99.113281 289.714844 99.113281 M 296.078125 119.550781 C 296.078125 118.441406 296.113281 117.300781 296.25 116.367188 L 296.214844 116.335938 C 295.386719 118.375 293.242188 119.894531 290.507812 119.894531 C 287.570312 119.894531 285.707031 118.234375 285.707031 115.503906 C 285.707031 111.5625 289.648438 109.28125 295.835938 109.28125 L 295.835938 108.171875 C 295.835938 106.027344 294.9375 104.921875 292.238281 104.921875 C 290.648438 104.921875 288.574219 105.40625 287.121094 106.304688 L 286.777344 103.160156 C 288.472656 102.503906 290.613281 102.015625 292.828125 102.015625 C 298.082031 102.015625 299.535156 104.300781 299.535156 107.828125 L 299.535156 114.847656 C 299.535156 116.335938 299.570312 118.097656 299.640625 119.550781 Z M 296.078125 119.550781 "/>
<path fill-rule="nonzero" fill="rgb(13.729858%, 12.159729%, 12.548828%)" fill-opacity="1" d="M 311.535156 119.855469 C 307.871094 119.855469 306.765625 118.464844 306.765625 114.703125 L 306.765625 105.523438 L 303.480469 105.523438 L 303.480469 102.710938 L 306.765625 102.710938 L 306.765625 97.355469 L 310.429688 96.375 L 310.429688 102.710938 L 314.957031 102.710938 L 314.957031 105.523438 L 310.460938 105.523438 L 310.460938 113.585938 C 310.460938 116.09375 310.980469 116.769531 312.710938 116.769531 C 313.472656 116.769531 314.300781 116.671875 314.957031 116.5 L 314.957031 119.480469 C 313.957031 119.683594 312.675781 119.855469 311.535156 119.855469 "/>
<path fill-rule="nonzero" fill="rgb(13.729858%, 12.159729%, 12.548828%)" fill-opacity="1" d="M 349.75 119.550781 L 349.75 108.230469 L 338.390625 108.230469 L 338.390625 119.550781 L 334.507812 119.550781 L 334.507812 94.339844 L 338.390625 94.339844 L 338.390625 104.757812 L 349.75 104.757812 L 349.75 94.339844 L 353.597656 94.339844 L 353.597656 119.550781 Z M 349.75 119.550781 "/>
<path fill-rule="nonzero" fill="rgb(13.729858%, 12.159729%, 12.548828%)" fill-opacity="1" d="M 370.523438 111.769531 C 365.128906 111.769531 363.953125 113.394531 363.953125 114.882812 C 363.953125 116.160156 364.851562 116.992188 366.304688 116.992188 C 368.828125 116.992188 370.523438 114.570312 370.523438 112.117188 Z M 370.765625 119.550781 C 370.765625 118.441406 370.800781 117.300781 370.9375 116.367188 L 370.902344 116.335938 C 370.074219 118.375 367.929688 119.894531 365.199219 119.894531 C 362.257812 119.894531 360.390625 118.234375 360.390625 115.503906 C 360.390625 111.5625 364.332031 109.277344 370.523438 109.277344 L 370.523438 108.171875 C 370.523438 106.027344 369.625 104.921875 366.929688 104.921875 C 365.335938 104.921875 363.261719 105.40625 361.808594 106.304688 L 361.464844 103.160156 C 363.15625 102.503906 365.300781 102.019531 367.515625 102.019531 C 372.769531 102.019531 374.222656 104.300781 374.222656 107.828125 L 374.222656 114.847656 C 374.222656 116.335938 374.257812 118.097656 374.328125 119.550781 Z M 370.765625 119.550781 "/>
<path fill-rule="nonzero" fill="rgb(13.729858%, 12.159729%, 12.548828%)" fill-opacity="1" d="M 402.199219 119.550781 L 402.199219 108.589844 C 402.199219 106.445312 401.679688 105.09375 399.710938 105.09375 C 397.496094 105.09375 395.285156 107.550781 395.285156 111.320312 L 395.285156 119.550781 L 391.652344 119.550781 L 391.652344 108.554688 C 391.652344 106.617188 391.238281 105.09375 389.164062 105.09375 C 386.8125 105.09375 384.769531 107.722656 384.769531 111.320312 L 384.769531 119.550781 L 381.070312 119.550781 L 381.070312 102.363281 L 384.597656 102.363281 C 384.597656 103.261719 384.527344 104.714844 384.355469 105.71875 L 384.425781 105.753906 C 385.429688 103.472656 387.574219 102.019531 390.234375 102.019531 C 393.621094 102.019531 394.730469 104.195312 395.007812 105.71875 C 395.734375 104.058594 397.632812 102.019531 400.75 102.019531 C 404.035156 102.019531 405.863281 103.78125 405.863281 107.691406 L 405.863281 119.550781 Z M 402.199219 119.550781 "/>
<path fill-rule="nonzero" fill="rgb(13.729858%, 12.159729%, 12.548828%)" fill-opacity="1" d="M 420.25 105.09375 C 417.484375 105.09375 415.996094 108.3125 415.996094 111.214844 L 415.996094 116.542969 C 416.757812 116.785156 417.621094 116.886719 418.695312 116.886719 C 421.632812 116.886719 423.640625 115.089844 423.640625 110.457031 C 423.640625 106.996094 422.566406 105.09375 420.25 105.09375 M 418.417969 119.828125 C 415.996094 119.828125 414.164062 119.585938 412.292969 119.101562 L 412.292969 94.308594 L 415.996094 94.308594 L 415.996094 102.222656 C 415.996094 103.226562 415.890625 104.613281 415.683594 105.511719 L 415.753906 105.511719 C 416.652344 103.367188 418.695312 102.015625 421.21875 102.015625 C 425.300781 102.015625 427.546875 104.921875 427.546875 110.109375 C 427.546875 116.058594 424.121094 119.828125 418.417969 119.828125 "/>
<path fill-rule="nonzero" fill="rgb(13.729858%, 12.159729%, 12.548828%)" fill-opacity="1" d="M 444.210938 119.550781 C 444.210938 118.652344 444.28125 117.164062 444.453125 116.195312 L 444.417969 116.160156 C 443.417969 118.375 441.339844 119.894531 438.4375 119.894531 C 434.53125 119.894531 433.320312 117.441406 433.320312 114.398438 L 433.320312 102.363281 L 436.984375 102.363281 L 436.984375 113.429688 C 436.984375 115.574219 437.574219 116.816406 439.542969 116.816406 C 442.136719 116.816406 444.042969 114.085938 444.042969 110.664062 L 444.042969 102.363281 L 447.742188 102.363281 L 447.742188 119.550781 Z M 444.210938 119.550781 "/>
<path fill-rule="nonzero" fill="rgb(13.729858%, 12.159729%, 12.548828%)" fill-opacity="1" d="M 463.992188 105.648438 C 460.570312 105.027344 458.910156 107.410156 458.910156 112.5625 L 458.910156 119.550781 L 455.210938 119.550781 L 455.210938 102.363281 L 458.738281 102.363281 C 458.738281 103.332031 458.632812 104.851562 458.390625 106.167969 L 458.460938 106.167969 C 459.21875 103.851562 460.949219 101.707031 464.164062 102.019531 Z M 463.992188 105.648438 "/>
<path fill-rule="nonzero" fill="rgb(13.729858%, 12.159729%, 12.548828%)" fill-opacity="1" d="M 476.164062 104.75 C 473.710938 104.75 472.257812 106.234375 472.257812 108.34375 C 472.257812 110.59375 473.640625 111.90625 476.132812 111.90625 C 478.445312 111.90625 479.96875 110.628906 479.96875 108.378906 C 479.96875 106.097656 478.550781 104.75 476.164062 104.75 M 477.894531 119.828125 L 474.679688 119.828125 C 474.367188 119.828125 474.019531 119.828125 473.746094 119.792969 C 472.570312 120.449219 471.84375 121.488281 471.84375 122.660156 C 471.84375 124.496094 473.574219 125.53125 476.0625 125.53125 C 479.277344 125.53125 481.078125 124.148438 481.078125 122.28125 C 481.078125 120.792969 480.074219 119.828125 477.894531 119.828125 M 475.472656 128.402344 C 470.980469 128.402344 468.175781 126.671875 468.175781 123.355469 C 468.175781 121.417969 469.457031 119.792969 470.945312 119.03125 C 469.90625 118.511719 469.25 117.613281 469.25 116.472656 C 469.25 115.226562 470.007812 114.050781 471.21875 113.53125 C 469.527344 112.597656 468.660156 110.835938 468.660156 108.691406 C 468.660156 105.058594 471.425781 102.015625 476.339844 102.015625 C 477.375 102.015625 478.238281 102.15625 479.171875 102.363281 L 484.984375 102.363281 L 484.984375 105.269531 L 482.355469 105.269531 C 483.082031 105.855469 483.53125 106.894531 483.53125 108.136719 C 483.53125 111.875 480.9375 114.5 476.09375 114.5 C 475.4375 114.5 474.644531 114.433594 474.125 114.328125 C 473.433594 114.605469 473.121094 115.125 473.121094 115.605469 C 473.121094 116.472656 473.882812 116.816406 475.957031 116.816406 L 478.898438 116.816406 C 482.632812 116.816406 484.742188 118.582031 484.742188 121.796875 C 484.742188 125.464844 481.003906 128.402344 475.472656 128.402344 "/>
<path fill-rule="nonzero" fill="rgb(92.939758%, 10.978699%, 14.118958%)" fill-opacity="1" d="M 0.808594 0.640625 L 119.328125 0.640625 L 119.328125 119.160156 L 0.808594 119.160156 Z M 0.808594 0.640625 "/>
<path fill-rule="nonzero" fill="rgb(100%, 100%, 100%)" fill-opacity="1" d="M 77 70.890625 L 78.695312 70.890625 L 77.847656 69.425781 L 78.695312 67.957031 L 77 67.957031 L 76.15625 66.492188 L 75.308594 67.957031 L 73.617188 67.957031 L 74.460938 69.425781 L 73.617188 70.890625 L 75.308594 70.890625 L 76.15625 72.359375 Z M 77 70.890625 "/>
<path fill-rule="nonzero" fill="rgb(100%, 100%, 100%)" fill-opacity="1" d="M 103.496094 70.890625 L 105.1875 70.890625 L 104.34375 69.425781 L 105.1875 67.957031 L 103.496094 67.957031 L 102.652344 66.492188 L 101.804688 67.957031 L 100.109375 67.957031 L 100.957031 69.425781 L 100.109375 70.890625 L 101.804688 70.890625 L 102.652344 72.359375 Z M 103.496094 70.890625 "/>
<path fill-rule="nonzero" fill="rgb(100%, 100%, 100%)" fill-opacity="1" d="M 84.75 71.570312 L 84.75 71.886719 L 82.894531 71.886719 L 82.894531 74.046875 L 84.984375 74.046875 L 84.984375 87.578125 L 80.167969 87.578125 L 80.167969 74.351562 L 72.140625 74.351562 L 72.140625 87.578125 L 69.519531 87.578125 L 69.519531 89.824219 L 109.289062 89.824219 L 109.289062 87.578125 L 106.664062 87.578125 L 106.664062 74.351562 L 98.636719 74.351562 L 98.636719 87.578125 L 93.820312 87.578125 L 93.820312 74.046875 L 95.910156 74.046875 L 95.910156 71.886719 L 94.058594 71.886719 C 93.9375 69.558594 92.78125 67.566406 90.351562 67.027344 L 90.351562 64.691406 L 92.089844 64.691406 L 92.089844 63.066406 L 90.351562 63.066406 L 90.351562 61.082031 L 88.453125 61.082031 L 88.453125 63.066406 L 86.714844 63.066406 L 86.714844 64.691406 L 88.453125 64.691406 L 88.453125 67.035156 C 86.308594 67.535156 84.75 69.3125 84.75 71.570312 "/>
<path fill-rule="nonzero" fill="rgb(100%, 100%, 100%)" fill-opacity="1" d="M 89.402344 99.105469 C 86.472656 99.105469 84.09375 101.480469 84.09375 104.410156 L 84 113.300781 L 67.3125 113.300781 C 69.789062 106.414062 71.4375 99.488281 71.949219 92.144531 L 106.855469 92.144531 C 107.367188 99.488281 109.015625 106.414062 111.492188 113.300781 L 94.804688 113.300781 L 94.710938 104.410156 C 94.710938 101.480469 92.335938 99.105469 89.402344 99.105469 "/>
<path fill-rule="nonzero" fill="rgb(100%, 100%, 100%)" fill-opacity="1" d="M 52.410156 39.339844 L 47.65625 39.339844 L 47.65625 26.003906 L 33.757812 26.003906 L 33.757812 29.082031 C 33.757812 35.773438 29.800781 39.78125 22.070312 39.78125 C 14.132812 39.78125 10.382812 36.089844 10.382812 29.214844 L 10.382812 9.625 L 15.183594 9.625 L 15.183594 28.25 C 15.183594 33.035156 16.851562 35.820312 22.117188 35.820312 C 27.296875 35.820312 29.050781 33.035156 29.050781 28.25 L 29.050781 9.625 L 33.757812 9.625 L 33.757812 21.910156 L 47.65625 21.910156 L 47.65625 9.625 L 52.410156 9.625 L 52.410156 21.910156 L 66.394531 21.910156 L 66.394531 9.625 L 71.148438 9.625 L 71.148438 39.339844 L 66.394531 39.339844 L 66.394531 26.003906 L 52.410156 26.003906 Z M 52.410156 39.339844 "/>
<path fill-rule="nonzero" fill="rgb(13.729858%, 12.159729%, 12.548828%)" fill-opacity="1" d="M 4.964844 143.125 C 4.292969 143.125 3.667969 143.148438 3.195312 143.191406 L 3.195312 153.359375 C 3.601562 153.425781 4.203125 153.472656 4.785156 153.472656 C 7.621094 153.472656 9.679688 151.863281 9.679688 148.285156 C 9.679688 145.046875 8.40625 143.125 4.964844 143.125 M 4.492188 155.953125 C 2.929688 155.953125 1.566406 155.886719 0.292969 155.84375 L 0.292969 140.800781 C 1.476562 140.757812 3.308594 140.6875 5.164062 140.6875 C 9.835938 140.6875 12.808594 142.769531 12.808594 148.066406 C 12.808594 153.25 9.410156 155.953125 4.492188 155.953125 "/>
<path fill-rule="nonzero" fill="rgb(13.729858%, 12.159729%, 12.548828%)" fill-opacity="1" d="M 15.425781 155.863281 L 15.425781 140.777344 L 23.628906 140.777344 L 23.628906 143.214844 L 18.332031 143.214844 L 18.332031 146.925781 L 23.359375 146.925781 L 23.359375 149.292969 L 18.332031 149.292969 L 18.332031 153.382812 L 23.628906 153.382812 L 23.628906 155.863281 Z M 15.425781 155.863281 "/>
<path fill-rule="nonzero" fill="rgb(13.729858%, 12.159729%, 12.548828%)" fill-opacity="1" d="M 30.714844 143.058594 C 30.289062 143.058594 29.863281 143.078125 29.574219 143.125 L 29.574219 147.484375 C 29.777344 147.503906 30.175781 147.527344 30.625 147.527344 C 32.367188 147.527344 33.441406 146.632812 33.441406 145.226562 C 33.441406 143.773438 32.546875 143.058594 30.714844 143.058594 M 33.890625 155.863281 L 29.6875 149.628906 L 29.574219 149.628906 L 29.574219 155.863281 L 26.667969 155.863281 L 26.667969 140.777344 C 27.855469 140.710938 29.261719 140.6875 31.003906 140.6875 C 34.335938 140.6875 36.480469 141.851562 36.480469 144.933594 C 36.480469 147.167969 34.914062 148.78125 32.636719 149.136719 C 33.0625 149.695312 33.484375 150.277344 33.867188 150.789062 L 37.488281 155.863281 Z M 33.890625 155.863281 "/>
<path fill-rule="nonzero" fill="rgb(13.729858%, 12.159729%, 12.548828%)" fill-opacity="1" d="M 50.898438 143.300781 L 50.898438 147.167969 L 55.746094 147.167969 L 55.746094 149.550781 L 50.898438 149.550781 L 50.898438 155.863281 L 48.007812 155.863281 L 48.007812 140.855469 L 56.035156 140.855469 L 56.035156 143.300781 Z M 50.898438 143.300781 "/>
<path fill-rule="nonzero" fill="rgb(13.729858%, 12.159729%, 12.548828%)" fill-opacity="1" d="M 64.859375 143.210938 C 62.792969 143.210938 60.878906 144.855469 60.878906 148.238281 C 60.878906 151.414062 62.125 153.484375 64.816406 153.484375 C 66.773438 153.484375 68.863281 151.972656 68.863281 148.371094 C 68.863281 145.035156 67.441406 143.210938 64.859375 143.210938 M 64.617188 156.109375 C 60.035156 156.109375 57.789062 153.195312 57.789062 148.546875 C 57.789062 143.589844 61.101562 140.609375 65.128906 140.609375 C 69.128906 140.609375 71.953125 143.011719 71.953125 148.148438 C 71.953125 153.109375 68.683594 156.109375 64.617188 156.109375 "/>
<path fill-rule="nonzero" fill="rgb(13.729858%, 12.159729%, 12.548828%)" fill-opacity="1" d="M 78.597656 143.121094 C 78.175781 143.121094 77.753906 143.144531 77.464844 143.191406 L 77.464844 147.527344 C 77.664062 147.546875 78.0625 147.570312 78.507812 147.570312 C 80.242188 147.570312 81.308594 146.679688 81.308594 145.28125 C 81.308594 143.832031 80.421875 143.121094 78.597656 143.121094 M 81.753906 155.863281 L 77.574219 149.660156 L 77.464844 149.660156 L 77.464844 155.863281 L 74.574219 155.863281 L 74.574219 140.855469 C 75.753906 140.789062 77.152344 140.765625 78.886719 140.765625 C 82.199219 140.765625 84.335938 141.921875 84.335938 144.988281 C 84.335938 147.214844 82.777344 148.816406 80.511719 149.171875 C 80.933594 149.726562 81.355469 150.304688 81.734375 150.816406 L 85.335938 155.863281 Z M 81.753906 155.863281 "/>
<path fill-rule="nonzero" fill="rgb(13.729858%, 12.159729%, 12.548828%)" fill-opacity="1" d="M 90.246094 156.109375 C 89.179688 156.109375 88.109375 155.996094 87.175781 155.753906 L 87.355469 153.0625 C 88.199219 153.351562 89.402344 153.59375 90.488281 153.59375 C 91.957031 153.59375 93.089844 152.996094 93.089844 151.617188 C 93.089844 148.746094 86.796875 150.0625 86.796875 145.125 C 86.796875 142.457031 88.910156 140.609375 92.511719 140.609375 C 93.359375 140.609375 94.335938 140.71875 95.226562 140.875 L 95.070312 143.410156 C 94.226562 143.167969 93.292969 143.011719 92.378906 143.011719 C 90.710938 143.011719 89.867188 143.769531 89.867188 144.835938 C 89.867188 147.527344 96.183594 146.523438 96.183594 151.214844 C 96.183594 154.039062 93.9375 156.109375 90.246094 156.109375 "/>
<path fill-rule="nonzero" fill="rgb(13.729858%, 12.159729%, 12.548828%)" fill-opacity="1" d="M 105.207031 156.0625 C 99.957031 156.0625 98.269531 152.574219 98.269531 148.839844 C 98.269531 144.078125 100.757812 140.742188 105.785156 140.742188 C 106.851562 140.742188 107.988281 140.875 108.964844 141.144531 L 108.652344 143.765625 C 107.675781 143.476562 106.652344 143.320312 105.628906 143.320312 C 102.828125 143.320312 101.449219 145.4375 101.449219 148.347656 C 101.449219 151.617188 102.804688 153.441406 105.828125 153.441406 C 106.742188 153.441406 107.964844 153.171875 108.742188 152.816406 L 109.074219 155.398438 C 107.964844 155.796875 106.609375 156.0625 105.207031 156.0625 "/>
<path fill-rule="nonzero" fill="rgb(13.729858%, 12.159729%, 12.548828%)" fill-opacity="1" d="M 121.300781 155.863281 L 121.300781 149.347656 L 114.941406 149.347656 L 114.941406 155.863281 L 112.050781 155.863281 L 112.050781 140.855469 L 114.941406 140.855469 L 114.941406 146.859375 L 121.300781 146.859375 L 121.300781 140.855469 L 124.191406 140.855469 L 124.191406 155.863281 Z M 121.300781 155.863281 "/>
<path fill-rule="nonzero" fill="rgb(13.729858%, 12.159729%, 12.548828%)" fill-opacity="1" d="M 133.839844 156.109375 C 129.101562 156.109375 128.035156 153.527344 128.035156 150.660156 L 128.035156 140.855469 L 130.925781 140.855469 L 130.925781 150.484375 C 130.925781 152.371094 131.546875 153.707031 134.039062 153.707031 C 136.261719 153.707031 137.195312 152.773438 137.195312 150.214844 L 137.195312 140.855469 L 140.066406 140.855469 L 140.066406 150.039062 C 140.066406 154.152344 137.796875 156.109375 133.839844 156.109375 "/>
<path fill-rule="nonzero" fill="rgb(13.729858%, 12.159729%, 12.548828%)" fill-opacity="1" d="M 152.511719 155.863281 L 148.109375 148.28125 C 147.441406 147.144531 146.929688 146.035156 146.484375 145.058594 C 146.574219 146.347656 146.617188 148.703125 146.617188 150.503906 L 146.617188 155.863281 L 143.816406 155.863281 L 143.816406 140.855469 L 147.574219 140.855469 L 151.753906 148.015625 C 152.445312 149.171875 153.046875 150.417969 153.601562 151.550781 C 153.488281 150.039062 153.445312 147.371094 153.445312 145.523438 L 153.445312 140.855469 L 156.246094 140.855469 L 156.246094 155.863281 Z M 152.511719 155.863281 "/>
<path fill-rule="nonzero" fill="rgb(13.729858%, 12.159729%, 12.548828%)" fill-opacity="1" d="M 171.140625 143.96875 C 169.941406 143.5 168.5625 143.210938 167.160156 143.210938 C 164.203125 143.210938 162.070312 145.082031 162.070312 148.4375 C 162.070312 151.617188 163.804688 153.484375 166.851562 153.484375 C 167.5625 153.484375 168.183594 153.394531 168.761719 153.21875 L 168.761719 147.992188 L 171.652344 147.992188 L 171.652344 155.152344 C 170.164062 155.753906 168.316406 156.085938 166.515625 156.085938 C 161.757812 156.085938 158.933594 153.285156 158.933594 148.703125 C 158.933594 143.988281 162.136719 140.632812 167.339844 140.632812 C 168.828125 140.632812 170.296875 140.898438 171.585938 141.277344 Z M 171.140625 143.96875 "/>
<path fill-rule="nonzero" fill="rgb(13.729858%, 12.159729%, 12.548828%)" fill-opacity="1" d="M 188.101562 140.289062 L 190.15625 140.289062 L 190.15625 157.722656 L 188.101562 157.722656 Z M 188.101562 140.289062 "/>
<path fill-rule="nonzero" fill="rgb(13.729858%, 12.159729%, 12.548828%)" fill-opacity="1" d="M 211.03125 143.1875 C 210.363281 143.1875 209.742188 143.210938 209.273438 143.257812 L 209.273438 153.375 C 209.671875 153.4375 210.273438 153.484375 210.851562 153.484375 C 213.675781 153.484375 215.722656 151.882812 215.722656 148.328125 C 215.722656 145.101562 214.453125 143.1875 211.03125 143.1875 M 210.5625 155.953125 C 209.007812 155.953125 207.648438 155.886719 206.382812 155.84375 L 206.382812 140.875 C 207.5625 140.832031 209.386719 140.765625 211.230469 140.765625 C 215.875 140.765625 218.835938 142.832031 218.835938 148.101562 C 218.835938 153.261719 215.453125 155.953125 210.5625 155.953125 "/>
<path fill-rule="nonzero" fill="rgb(13.729858%, 12.159729%, 12.548828%)" fill-opacity="1" d="M 221.433594 155.863281 L 221.433594 140.855469 L 229.59375 140.855469 L 229.59375 143.277344 L 224.324219 143.277344 L 224.324219 146.96875 L 229.328125 146.96875 L 229.328125 149.328125 L 224.324219 149.328125 L 224.324219 153.394531 L 229.59375 153.394531 L 229.59375 155.863281 Z M 221.433594 155.863281 "/>
<path fill-rule="nonzero" fill="rgb(13.729858%, 12.159729%, 12.548828%)" fill-opacity="1" d="M 236.640625 143.121094 C 236.21875 143.121094 235.792969 143.144531 235.503906 143.191406 L 235.503906 147.527344 C 235.703125 147.546875 236.105469 147.570312 236.550781 147.570312 C 238.285156 147.570312 239.351562 146.679688 239.351562 145.28125 C 239.351562 143.832031 238.460938 143.121094 236.640625 143.121094 M 239.796875 155.863281 L 235.613281 149.660156 L 235.503906 149.660156 L 235.503906 155.863281 L 232.613281 155.863281 L 232.613281 140.855469 C 233.792969 140.789062 235.195312 140.765625 236.929688 140.765625 C 240.242188 140.765625 242.375 141.921875 242.375 144.988281 C 242.375 147.214844 240.820312 148.816406 238.550781 149.171875 C 238.972656 149.726562 239.394531 150.304688 239.773438 150.816406 L 243.375 155.863281 Z M 239.796875 155.863281 "/>
<path fill-rule="nonzero" fill="rgb(13.729858%, 12.159729%, 12.548828%)" fill-opacity="1" d="M 253.84375 155.863281 L 253.84375 140.855469 L 256.734375 140.855469 L 256.734375 153.328125 L 261.601562 153.328125 L 261.601562 155.863281 Z M 253.84375 155.863281 "/>
<path fill-rule="nonzero" fill="rgb(13.729858%, 12.159729%, 12.548828%)" fill-opacity="1" d="M 263.714844 155.863281 L 263.714844 140.855469 L 271.875 140.855469 L 271.875 143.277344 L 266.605469 143.277344 L 266.605469 146.96875 L 271.609375 146.96875 L 271.609375 149.328125 L 266.605469 149.328125 L 266.605469 153.394531 L 271.875 153.394531 L 271.875 155.863281 Z M 263.714844 155.863281 "/>
<path fill-rule="nonzero" fill="rgb(13.729858%, 12.159729%, 12.548828%)" fill-opacity="1" d="M 284.257812 155.863281 L 284.257812 149.347656 L 277.898438 149.347656 L 277.898438 155.863281 L 275.007812 155.863281 L 275.007812 140.855469 L 277.898438 140.855469 L 277.898438 146.859375 L 284.257812 146.859375 L 284.257812 140.855469 L 287.148438 140.855469 L 287.148438 155.863281 Z M 284.257812 155.863281 "/>
<path fill-rule="nonzero" fill="rgb(13.729858%, 12.159729%, 12.548828%)" fill-opacity="1" d="M 295.058594 143.121094 C 294.636719 143.121094 294.214844 143.144531 293.925781 143.191406 L 293.925781 147.527344 C 294.125 147.546875 294.523438 147.570312 294.96875 147.570312 C 296.703125 147.570312 297.773438 146.679688 297.773438 145.28125 C 297.773438 143.832031 296.882812 143.121094 295.058594 143.121094 M 298.214844 155.863281 L 294.035156 149.660156 L 293.925781 149.660156 L 293.925781 155.863281 L 291.035156 155.863281 L 291.035156 140.855469 C 292.210938 140.789062 293.613281 140.765625 295.347656 140.765625 C 298.664062 140.765625 300.796875 141.921875 300.796875 144.988281 C 300.796875 147.214844 299.238281 148.816406 296.972656 149.171875 C 297.394531 149.726562 297.816406 150.304688 298.195312 150.816406 L 301.796875 155.863281 Z M 298.214844 155.863281 "/>
<path fill-rule="nonzero" fill="rgb(13.729858%, 12.159729%, 12.548828%)" fill-opacity="1" d="M 304.128906 155.863281 L 304.128906 140.855469 L 312.289062 140.855469 L 312.289062 143.277344 L 307.019531 143.277344 L 307.019531 146.96875 L 312.019531 146.96875 L 312.019531 149.328125 L 307.019531 149.328125 L 307.019531 153.394531 L 312.289062 153.394531 L 312.289062 155.863281 Z M 304.128906 155.863281 "/>
<path fill-rule="nonzero" fill="rgb(13.729858%, 12.159729%, 12.548828%)" fill-opacity="1" d="M 328.492188 140.289062 L 330.546875 140.289062 L 330.546875 157.722656 L 328.492188 157.722656 Z M 328.492188 140.289062 "/>
<path fill-rule="nonzero" fill="rgb(13.729858%, 12.159729%, 12.548828%)" fill-opacity="1" d="M 351.003906 143.1875 C 350.335938 143.1875 349.710938 143.210938 349.246094 143.257812 L 349.246094 153.375 C 349.644531 153.4375 350.246094 153.484375 350.824219 153.484375 C 353.648438 153.484375 355.695312 151.882812 355.695312 148.328125 C 355.695312 145.101562 354.425781 143.1875 351.003906 143.1875 M 350.535156 155.953125 C 348.980469 155.953125 347.625 155.886719 346.355469 155.84375 L 346.355469 140.875 C 347.535156 140.832031 349.359375 140.765625 351.203125 140.765625 C 355.847656 140.765625 358.808594 142.832031 358.808594 148.101562 C 358.808594 153.261719 355.425781 155.953125 350.535156 155.953125 "/>
<path fill-rule="nonzero" fill="rgb(13.729858%, 12.159729%, 12.548828%)" fill-opacity="1" d="M 361.402344 155.863281 L 361.402344 140.855469 L 369.5625 140.855469 L 369.5625 143.277344 L 364.292969 143.277344 L 364.292969 146.96875 L 369.296875 146.96875 L 369.296875 149.328125 L 364.292969 149.328125 L 364.292969 153.394531 L 369.5625 153.394531 L 369.5625 155.863281 Z M 361.402344 155.863281 "/>
<path fill-rule="nonzero" fill="rgb(13.729858%, 12.159729%, 12.548828%)" fill-opacity="1" d="M 376.613281 143.121094 C 376.1875 143.121094 375.765625 143.144531 375.476562 143.191406 L 375.476562 147.527344 C 375.675781 147.546875 376.078125 147.570312 376.523438 147.570312 C 378.257812 147.570312 379.324219 146.679688 379.324219 145.28125 C 379.324219 143.832031 378.433594 143.121094 376.613281 143.121094 M 379.769531 155.863281 L 375.589844 149.660156 L 375.476562 149.660156 L 375.476562 155.863281 L 372.585938 155.863281 L 372.585938 140.855469 C 373.765625 140.789062 375.164062 140.765625 376.898438 140.765625 C 380.214844 140.765625 382.347656 141.921875 382.347656 144.988281 C 382.347656 147.214844 380.792969 148.816406 378.523438 149.171875 C 378.949219 149.726562 379.371094 150.304688 379.746094 150.816406 L 383.347656 155.863281 Z M 379.769531 155.863281 "/>
<path fill-rule="nonzero" fill="rgb(13.729858%, 12.159729%, 12.548828%)" fill-opacity="1" d="M 397.972656 149.238281 C 397.753906 149.238281 397.019531 149.238281 396.703125 149.257812 L 396.703125 153.464844 C 397.0625 153.507812 397.617188 153.550781 398.285156 153.550781 C 400.175781 153.550781 401.132812 152.660156 401.132812 151.304688 C 401.132812 149.835938 399.867188 149.238281 397.972656 149.238281 M 398.394531 143.101562 C 397.796875 143.101562 397.21875 143.121094 396.703125 143.144531 L 396.703125 147.058594 C 397.0625 147.082031 397.417969 147.082031 397.886719 147.082031 C 399.867188 147.082031 400.886719 146.28125 400.886719 144.945312 C 400.886719 143.835938 400.21875 143.101562 398.394531 143.101562 M 398.195312 155.910156 C 397.285156 155.910156 395.707031 155.863281 393.816406 155.863281 L 393.816406 140.875 C 395.085938 140.808594 397.039062 140.765625 398.886719 140.765625 C 402.132812 140.765625 403.933594 142.078125 403.933594 144.476562 C 403.933594 145.96875 402.976562 147.28125 401.554688 147.835938 L 401.554688 147.882812 C 403.335938 148.257812 404.222656 149.726562 404.222656 151.238281 C 404.222656 153.417969 402.730469 155.910156 398.195312 155.910156 "/>
<path fill-rule="nonzero" fill="rgb(13.729858%, 12.159729%, 12.548828%)" fill-opacity="1" d="M 407.21875 140.855469 L 410.109375 140.855469 L 410.109375 155.863281 L 407.21875 155.863281 Z M 407.21875 140.855469 "/>
<path fill-rule="nonzero" fill="rgb(13.729858%, 12.159729%, 12.548828%)" fill-opacity="1" d="M 413.980469 155.863281 L 413.980469 140.855469 L 416.867188 140.855469 L 416.867188 153.328125 L 421.738281 153.328125 L 421.738281 155.863281 Z M 413.980469 155.863281 "/>
<path fill-rule="nonzero" fill="rgb(13.729858%, 12.159729%, 12.548828%)" fill-opacity="1" d="M 428.496094 143.1875 C 427.828125 143.1875 427.207031 143.210938 426.738281 143.257812 L 426.738281 153.375 C 427.140625 153.4375 427.738281 153.484375 428.316406 153.484375 C 431.140625 153.484375 433.183594 151.882812 433.183594 148.328125 C 433.183594 145.101562 431.917969 143.1875 428.496094 143.1875 M 428.027344 155.953125 C 426.472656 155.953125 425.113281 155.886719 423.847656 155.84375 L 423.847656 140.875 C 425.027344 140.832031 426.851562 140.765625 428.695312 140.765625 C 433.34375 140.765625 436.300781 142.832031 436.300781 148.101562 C 436.300781 153.261719 432.921875 155.953125 428.027344 155.953125 "/>
<path fill-rule="nonzero" fill="rgb(13.729858%, 12.159729%, 12.548828%)" fill-opacity="1" d="M 444.8125 156.109375 C 440.074219 156.109375 439.007812 153.527344 439.007812 150.660156 L 439.007812 140.855469 L 441.898438 140.855469 L 441.898438 150.484375 C 441.898438 152.371094 442.519531 153.707031 445.011719 153.707031 C 447.234375 153.707031 448.167969 152.773438 448.167969 150.214844 L 448.167969 140.855469 L 451.039062 140.855469 L 451.039062 150.039062 C 451.039062 154.152344 448.769531 156.109375 444.8125 156.109375 "/>
<path fill-rule="nonzero" fill="rgb(13.729858%, 12.159729%, 12.548828%)" fill-opacity="1" d="M 463.484375 155.863281 L 459.078125 148.28125 C 458.414062 147.144531 457.902344 146.035156 457.457031 145.058594 C 457.546875 146.347656 457.59375 148.703125 457.59375 150.503906 L 457.59375 155.863281 L 454.789062 155.863281 L 454.789062 140.855469 L 458.546875 140.855469 L 462.726562 148.015625 C 463.417969 149.171875 464.015625 150.417969 464.574219 151.550781 C 464.460938 150.039062 464.417969 147.371094 464.417969 145.523438 L 464.417969 140.855469 L 467.21875 140.855469 L 467.21875 155.863281 Z M 463.484375 155.863281 "/>
<path fill-rule="nonzero" fill="rgb(13.729858%, 12.159729%, 12.548828%)" fill-opacity="1" d="M 482.113281 143.96875 C 480.910156 143.5 479.535156 143.210938 478.132812 143.210938 C 475.175781 143.210938 473.042969 145.082031 473.042969 148.4375 C 473.042969 151.617188 474.777344 153.484375 477.820312 153.484375 C 478.535156 153.484375 479.15625 153.394531 479.734375 153.21875 L 479.734375 147.992188 L 482.625 147.992188 L 482.625 155.152344 C 481.136719 155.753906 479.289062 156.085938 477.488281 156.085938 C 472.730469 156.085938 469.90625 153.285156 469.90625 148.703125 C 469.90625 143.988281 473.109375 140.632812 478.3125 140.632812 C 479.800781 140.632812 481.269531 140.898438 482.558594 141.277344 Z M 482.113281 143.96875 "/>
</svg>
