<?xml version="1.0" encoding="UTF-8" standalone="no"?>
<!DOCTYPE svg PUBLIC "-//W3C//DTD SVG 1.1//EN" "http://www.w3.org/Graphics/SVG/1.1/DTD/svg11.dtd">
<svg width="100%" height="100%" viewBox="0 0 2300 800" version="1.1" xmlns="http://www.w3.org/2000/svg" xmlns:xlink="http://www.w3.org/1999/xlink" xml:space="preserve" xmlns:serif="http://www.serif.com/" style="fill-rule:evenodd;clip-rule:evenodd;stroke-linecap:round;stroke-linejoin:round;stroke-miterlimit:1.5;">
    <g transform="matrix(1.05579,0,0,1.05579,171.531646,311.328434)">
        <g>
            <g transform="matrix(1,0,0,1,64,-22)">
                <rect x="178" y="118" width="97" height="215" style="fill:rgb(235,235,235);stroke:black;stroke-width:23.68px;"/>
            </g>
            <g transform="matrix(1.375,0,0,1.913043,-168.75,-172)">
                <path d="M370,199.525L370,191.475L410,191.475L410,184L426,195.5L410,207L410,199.525L370,199.525Z"/>
            </g>
        </g>
        <g transform="matrix(1,0,0,1,185,0)">
            <g transform="matrix(1,0,0,1,64,-22)">
                <rect x="178" y="118" width="97" height="215" style="fill:rgb(235,235,235);stroke:black;stroke-width:23.68px;"/>
            </g>
            <g transform="matrix(1.375,0,0,1.913043,-168.75,-172)">
                <path d="M370,199.525L370,191.475L410,191.475L410,184L426,195.5L410,207L410,199.525L370,199.525Z"/>
            </g>
            <g transform="matrix(1.160714,0,0,1.913043,105.535714,-170)">
                <path d="M370,199.525L370,191.475L407.046,191.475L407.046,184L426,195.5L407.046,207L407.046,199.525L370,199.525Z" style="fill:rgb(31,77,255);"/>
            </g>
            <g transform="matrix(0,-3.660714,1.913043,0,190.5,1553.964286)">
                <rect x="370" y="191.475" width="56" height="8.05" style="fill:rgb(31,77,255);"/>
            </g>
            <g transform="matrix(-0.282211,-0.997585,1.840802,-0.520753,934.557795,556.846009)">
                <path d="M391.22,199.525L391.22,207L370,195.5L391.22,184L391.22,191.475L426,191.475L426,199.525L391.22,199.525Z" style="fill:rgb(31,77,255);"/>
            </g>
            <g transform="matrix(9.857143,0,-0,1.913043,-3090.142857,-372)">
                <rect x="370" y="191.475" width="56" height="8.05" style="fill:rgb(31,77,255);"/>
            </g>
        </g>
        <g transform="matrix(1,0,0,1,433,-22)">
            <rect x="178" y="118" width="97" height="215" style="fill:rgb(235,235,235);stroke:black;stroke-width:23.68px;"/>
        </g>
        <g transform="matrix(1,0,0,1,553,0)">
            <g transform="matrix(1,0,0,1,64,-22)">
                <rect x="178" y="118" width="97" height="215" style="fill:rgb(235,235,235);stroke:black;stroke-width:23.68px;"/>
            </g>
            <g transform="matrix(1.375,0,0,1.913043,-168.75,-172)">
                <path d="M370,199.525L370,191.475L410,191.475L410,184L426,195.5L410,207L410,199.525L370,199.525Z"/>
            </g>
        </g>
        <g transform="matrix(1,0,0,1,737,0)">
            <g transform="matrix(1,0,0,1,64,-22)">
                <rect x="178" y="118" width="97" height="215" style="fill:rgb(235,235,235);stroke:black;stroke-width:23.68px;"/>
            </g>
            <g transform="matrix(1.375,0,0,1.913043,-168.75,-172)">
                <path d="M370,199.525L370,191.475L410,191.475L410,184L426,195.5L410,207L410,199.525L370,199.525Z"/>
            </g>
        </g>
        <g transform="matrix(1,0,0,1,921,0)">
            <g transform="matrix(1,0,0,1,64,-22)">
                <rect x="178" y="118" width="97" height="215" style="fill:rgb(235,235,235);stroke:black;stroke-width:23.68px;"/>
            </g>
            <g transform="matrix(0.968385,-0.976143,1.358112,1.347318,-278.428154,190.104362)">
                <path d="M370,199.525L370,191.475L410,191.475L410,184L426,195.5L410,207L410,199.525L370,199.525Z"/>
            </g>
        </g>
        <g transform="matrix(1,0,0,1,1105,0)">
            <g transform="matrix(1,0,0,1,64,-22)">
                <rect x="178" y="118" width="97" height="215" style="fill:rgb(235,235,235);stroke:black;stroke-width:23.68px;"/>
            </g>
            <g transform="matrix(1.375,0,0,1.913043,-168.75,-172)">
                <path d="M370,199.525L370,191.475L410,191.475L410,184L426,195.5L410,207L410,199.525L370,199.525Z"/>
            </g>
        </g>
        <g transform="matrix(1,0,0,1,1287,0)">
            <g transform="matrix(1,0,0,1,64,-22)">
                <rect x="178" y="118" width="97" height="215" style="fill:rgb(235,235,235);stroke:black;stroke-width:23.68px;"/>
            </g>
            <g transform="matrix(2.538105,0.67563,-0.492105,1.848667,-495.459182,-411.633861)">
                <path d="M370,199.525L370,191.475L417.624,191.475L417.624,184L426,195.5L417.624,207L417.624,199.525L370,199.525Z"/>
            </g>
        </g>
    </g>
    <g transform="matrix(1.05579,0,0,1.05579,8.939991,301.826324)">
        <g transform="matrix(1.641892,0,0,1.069767,-54.885135,-94)">
            <path d="M119,129L193,215L119,301L45,215L119,129Z" style="fill:white;stroke:black;stroke-width:17.09px;"/>
        </g>
        <g transform="matrix(1,0,0,1,11,1)">
            <g transform="matrix(58.333333,0,0,58.333333,68.4671,152.625864)">
                <rect x="0.084" y="-0.693" width="0.09" height="0.693" style="fill-rule:nonzero;"/>
            </g>
            <g transform="matrix(58.333333,0,0,58.333333,83.5171,152.625864)">
                <path d="M0.078,-0.51C0.103,-0.517 0.129,-0.523 0.158,-0.528C0.187,-0.533 0.213,-0.536 0.237,-0.536C0.263,-0.536 0.287,-0.533 0.308,-0.525C0.329,-0.518 0.347,-0.507 0.362,-0.49C0.378,-0.473 0.389,-0.451 0.398,-0.422C0.406,-0.394 0.41,-0.359 0.41,-0.317L0.41,-0L0.324,-0L0.324,-0.31C0.324,-0.362 0.317,-0.4 0.304,-0.424C0.291,-0.448 0.266,-0.46 0.229,-0.46C0.21,-0.46 0.188,-0.457 0.164,-0.45L0.164,-0L0.078,-0L0.078,-0.51Z" style="fill-rule:nonzero;"/>
            </g>
            <g transform="matrix(58.333333,0,0,58.333333,111.633767,152.625864)">
                <path d="M0.163,-0.079C0.182,-0.068 0.203,-0.063 0.225,-0.063C0.242,-0.063 0.256,-0.066 0.269,-0.073C0.282,-0.08 0.293,-0.091 0.301,-0.106C0.31,-0.121 0.317,-0.142 0.322,-0.167C0.327,-0.192 0.329,-0.224 0.329,-0.261C0.329,-0.333 0.32,-0.385 0.301,-0.416C0.283,-0.447 0.254,-0.462 0.214,-0.462C0.207,-0.462 0.199,-0.462 0.19,-0.461C0.181,-0.46 0.172,-0.458 0.163,-0.455L0.163,-0.079ZM0.163,0.185L0.077,0.185L0.077,-0.511C0.096,-0.519 0.117,-0.525 0.141,-0.53C0.164,-0.535 0.188,-0.538 0.213,-0.538C0.25,-0.538 0.281,-0.532 0.307,-0.519C0.334,-0.506 0.355,-0.488 0.371,-0.465C0.388,-0.441 0.4,-0.412 0.408,-0.378C0.415,-0.343 0.419,-0.304 0.419,-0.26C0.419,-0.171 0.405,-0.104 0.377,-0.057C0.348,-0.01 0.302,0.013 0.238,0.013C0.223,0.013 0.209,0.012 0.197,0.009C0.185,0.006 0.174,0.001 0.163,-0.004L0.163,0.185Z" style="fill-rule:nonzero;"/>
            </g>
            <g transform="matrix(58.333333,0,0,58.333333,138.875433,152.625864)">
                <path d="M0.403,-0.015C0.394,-0.012 0.384,-0.009 0.371,-0.005C0.359,-0.003 0.346,0 0.333,0.003C0.319,0.005 0.305,0.007 0.291,0.009C0.278,0.01 0.265,0.011 0.254,0.011C0.227,0.011 0.202,0.008 0.179,0.002C0.156,-0.005 0.137,-0.016 0.121,-0.032C0.105,-0.048 0.093,-0.07 0.084,-0.098C0.075,-0.125 0.071,-0.16 0.071,-0.202L0.071,-0.525L0.157,-0.525L0.157,-0.205C0.157,-0.154 0.165,-0.118 0.18,-0.097C0.196,-0.075 0.22,-0.065 0.252,-0.065C0.263,-0.065 0.273,-0.066 0.284,-0.067C0.295,-0.068 0.306,-0.07 0.317,-0.073L0.317,-0.525L0.403,-0.525L0.403,-0.015Z" style="fill-rule:nonzero;"/>
            </g>
            <g transform="matrix(58.333333,0,0,58.333333,166.875433,152.625864)">
                <path d="M0.158,-0.525L0.29,-0.525L0.29,-0.451L0.158,-0.451L0.158,-0.162C0.158,-0.126 0.165,-0.101 0.177,-0.087C0.191,-0.072 0.208,-0.065 0.23,-0.065C0.241,-0.065 0.252,-0.067 0.263,-0.07C0.273,-0.073 0.282,-0.077 0.289,-0.082L0.306,-0.013C0.279,0.003 0.25,0.011 0.219,0.011C0.17,0.011 0.133,-0.003 0.108,-0.03C0.084,-0.058 0.072,-0.104 0.072,-0.168L0.072,-0.666L0.158,-0.681L0.158,-0.525Z" style="fill-rule:nonzero;"/>
            </g>
        </g>
    </g>
    <g transform="matrix(0.799446,0,0,0.799446,1970.189337,290.186566)">
        <g transform="matrix(1.641892,0,0,1.069767,-54.885135,-94)">
            <path d="M119,129L193,215L119,301L45,215L119,129Z" style="fill:white;stroke:black;stroke-width:15.05px;"/>
        </g>
        <g transform="matrix(1,0,0,1,2.321429,1.565994)">
            <g transform="matrix(60.529891,0,0,60.529891,68.4671,152.625864)">
                <path d="M0.412,-0.693L0.412,-0.616L0.258,-0.616L0.258,-0L0.168,-0L0.168,-0.616L0.014,-0.616L0.014,-0.693L0.412,-0.693Z" style="fill-rule:nonzero;"/>
            </g>
            <g transform="matrix(60.529891,0,0,60.529891,91.528989,152.625864)">
                <path d="M0.086,-0.514C0.103,-0.521 0.122,-0.527 0.141,-0.531C0.16,-0.536 0.181,-0.538 0.204,-0.538C0.251,-0.538 0.289,-0.523 0.318,-0.494C0.347,-0.466 0.362,-0.42 0.362,-0.359L0.362,-0.011C0.338,-0.004 0.314,0.001 0.288,0.005C0.264,0.009 0.239,0.011 0.215,0.011C0.191,0.011 0.168,0.008 0.147,0.002C0.127,-0.004 0.108,-0.014 0.092,-0.027C0.077,-0.04 0.064,-0.057 0.055,-0.077C0.046,-0.098 0.041,-0.123 0.041,-0.152C0.041,-0.179 0.045,-0.203 0.053,-0.224C0.062,-0.244 0.073,-0.261 0.088,-0.275C0.103,-0.288 0.12,-0.298 0.14,-0.305C0.16,-0.312 0.182,-0.316 0.205,-0.316C0.227,-0.316 0.251,-0.313 0.278,-0.308L0.278,-0.356C0.278,-0.395 0.271,-0.422 0.256,-0.437C0.241,-0.452 0.219,-0.46 0.191,-0.46C0.176,-0.46 0.161,-0.459 0.147,-0.456C0.134,-0.452 0.119,-0.448 0.104,-0.441L0.086,-0.514ZM0.127,-0.153C0.127,-0.122 0.135,-0.1 0.151,-0.085C0.167,-0.07 0.19,-0.063 0.219,-0.063C0.237,-0.063 0.257,-0.065 0.278,-0.07L0.278,-0.237C0.258,-0.242 0.238,-0.245 0.219,-0.245C0.206,-0.245 0.194,-0.243 0.183,-0.24C0.172,-0.238 0.162,-0.233 0.153,-0.226C0.145,-0.218 0.139,-0.209 0.134,-0.198C0.129,-0.186 0.127,-0.171 0.127,-0.153Z" style="fill-rule:nonzero;"/>
            </g>
            <g transform="matrix(60.529891,0,0,60.529891,117.798961,152.625864)">
                <path d="M0.305,-0.447C0.284,-0.456 0.26,-0.461 0.233,-0.461C0.208,-0.461 0.185,-0.457 0.164,-0.448L0.164,-0L0.078,-0L0.078,-0.502C0.097,-0.511 0.119,-0.519 0.144,-0.525C0.169,-0.532 0.197,-0.535 0.227,-0.535C0.243,-0.535 0.259,-0.534 0.275,-0.532C0.291,-0.53 0.306,-0.526 0.32,-0.521L0.305,-0.447Z" style="fill-rule:nonzero;"/>
            </g>
            <g transform="matrix(60.529891,0,0,60.529891,137.047467,152.625864)">
                <path d="M0.39,-0.015C0.39,0.022 0.385,0.054 0.376,0.08C0.366,0.105 0.353,0.126 0.336,0.142C0.319,0.158 0.3,0.17 0.278,0.177C0.255,0.184 0.231,0.188 0.206,0.188C0.185,0.188 0.163,0.186 0.142,0.181C0.121,0.176 0.101,0.169 0.083,0.16L0.101,0.088C0.113,0.095 0.128,0.101 0.145,0.106C0.162,0.111 0.18,0.114 0.199,0.114C0.232,0.114 0.257,0.105 0.276,0.086C0.295,0.067 0.304,0.035 0.304,-0.01L0.304,-0.035C0.293,-0.03 0.282,-0.026 0.27,-0.024C0.258,-0.021 0.244,-0.019 0.229,-0.019C0.166,-0.019 0.121,-0.041 0.091,-0.084C0.062,-0.127 0.048,-0.187 0.048,-0.266C0.048,-0.308 0.052,-0.346 0.06,-0.38C0.067,-0.413 0.079,-0.442 0.096,-0.466C0.112,-0.489 0.133,-0.507 0.159,-0.519C0.185,-0.532 0.217,-0.538 0.254,-0.538C0.279,-0.538 0.303,-0.535 0.327,-0.53C0.35,-0.525 0.371,-0.519 0.39,-0.511L0.39,-0.015ZM0.304,-0.455C0.295,-0.458 0.286,-0.46 0.277,-0.461C0.268,-0.462 0.26,-0.462 0.253,-0.462C0.213,-0.462 0.184,-0.447 0.166,-0.416C0.147,-0.385 0.138,-0.335 0.138,-0.266C0.138,-0.203 0.147,-0.159 0.165,-0.134C0.183,-0.108 0.209,-0.095 0.242,-0.095C0.253,-0.095 0.264,-0.096 0.275,-0.099C0.285,-0.102 0.295,-0.105 0.304,-0.11L0.304,-0.455Z" style="fill-rule:nonzero;"/>
            </g>
            <g transform="matrix(60.529891,0,0,60.529891,165.314926,152.625864)">
                <path d="M0.137,-0.237C0.138,-0.212 0.14,-0.189 0.144,-0.168C0.148,-0.146 0.154,-0.128 0.164,-0.113C0.172,-0.097 0.184,-0.085 0.2,-0.076C0.214,-0.067 0.234,-0.063 0.257,-0.063C0.276,-0.063 0.294,-0.066 0.31,-0.072C0.327,-0.077 0.339,-0.082 0.346,-0.086L0.362,-0.017C0.353,-0.011 0.339,-0.004 0.319,0.003C0.298,0.009 0.274,0.013 0.246,0.013C0.209,0.013 0.178,0.006 0.153,-0.007C0.129,-0.02 0.108,-0.039 0.092,-0.063C0.077,-0.087 0.066,-0.116 0.059,-0.149C0.052,-0.182 0.049,-0.219 0.049,-0.259C0.049,-0.356 0.065,-0.426 0.097,-0.471C0.129,-0.516 0.171,-0.538 0.224,-0.538C0.283,-0.538 0.325,-0.516 0.35,-0.471C0.375,-0.426 0.387,-0.364 0.387,-0.283L0.387,-0.261C0.387,-0.253 0.387,-0.245 0.386,-0.237L0.137,-0.237ZM0.224,-0.465C0.195,-0.465 0.174,-0.451 0.162,-0.422C0.148,-0.393 0.141,-0.355 0.138,-0.307L0.297,-0.307C0.297,-0.356 0.292,-0.394 0.282,-0.422C0.272,-0.451 0.253,-0.465 0.224,-0.465Z" style="fill-rule:nonzero;"/>
            </g>
            <g transform="matrix(60.529891,0,0,60.529891,191.705959,152.625864)">
                <path d="M0.158,-0.525L0.29,-0.525L0.29,-0.451L0.158,-0.451L0.158,-0.162C0.158,-0.126 0.165,-0.101 0.177,-0.087C0.191,-0.072 0.208,-0.065 0.23,-0.065C0.241,-0.065 0.252,-0.067 0.263,-0.07C0.273,-0.073 0.282,-0.077 0.289,-0.082L0.306,-0.013C0.279,0.003 0.25,0.011 0.219,0.011C0.17,0.011 0.133,-0.003 0.108,-0.03C0.084,-0.058 0.072,-0.104 0.072,-0.168L0.072,-0.666L0.158,-0.681L0.158,-0.525Z" style="fill-rule:nonzero;"/>
            </g>
        </g>
    </g>
    <g transform="matrix(1.05579,0,0,1.05579,2004.383029,452.804289)">
        <g transform="matrix(1.641892,0,0,1.069767,-54.885135,-94)">
            <path d="M119,129L193,215L119,301L45,215L119,129Z" style="fill:white;stroke:rgb(93,175,0);stroke-width:17.09px;"/>
        </g>
        <g transform="matrix(1,0,0,1,27,0)">
            <g transform="matrix(58.333333,0,0,58.333333,68.4671,152.625864)">
                <path d="M0.393,-0.077L0.393,-0L0.084,-0L0.084,-0.693L0.174,-0.693L0.174,-0.077L0.393,-0.077Z" style="fill:rgb(93,175,0);fill-rule:nonzero;"/>
            </g>
            <g transform="matrix(58.333333,0,0,58.333333,92.7921,152.625864)">
                <path d="M0.415,-0.262C0.415,-0.221 0.411,-0.183 0.404,-0.149C0.397,-0.116 0.386,-0.087 0.37,-0.063C0.355,-0.039 0.337,-0.02 0.314,-0.007C0.291,0.006 0.263,0.013 0.232,0.013C0.201,0.013 0.173,0.006 0.15,-0.007C0.127,-0.02 0.107,-0.039 0.092,-0.063C0.077,-0.087 0.066,-0.116 0.059,-0.149C0.052,-0.183 0.048,-0.221 0.048,-0.262C0.048,-0.303 0.052,-0.34 0.059,-0.374C0.066,-0.408 0.077,-0.437 0.092,-0.462C0.107,-0.486 0.127,-0.505 0.15,-0.518C0.173,-0.531 0.201,-0.538 0.232,-0.538C0.263,-0.538 0.291,-0.531 0.314,-0.518C0.337,-0.505 0.355,-0.486 0.37,-0.462C0.386,-0.437 0.397,-0.408 0.404,-0.374C0.411,-0.34 0.415,-0.303 0.415,-0.262ZM0.325,-0.262C0.325,-0.291 0.323,-0.318 0.32,-0.343C0.317,-0.367 0.311,-0.388 0.304,-0.406C0.297,-0.423 0.287,-0.437 0.275,-0.447C0.263,-0.456 0.249,-0.461 0.232,-0.461C0.215,-0.461 0.2,-0.456 0.189,-0.447C0.177,-0.437 0.167,-0.423 0.16,-0.406C0.152,-0.388 0.146,-0.367 0.143,-0.343C0.14,-0.318 0.138,-0.291 0.138,-0.262C0.138,-0.233 0.14,-0.206 0.143,-0.181C0.146,-0.157 0.152,-0.136 0.16,-0.119C0.167,-0.102 0.177,-0.088 0.189,-0.079C0.2,-0.069 0.215,-0.064 0.232,-0.064C0.249,-0.064 0.263,-0.069 0.275,-0.079C0.287,-0.088 0.297,-0.102 0.304,-0.119C0.311,-0.136 0.317,-0.157 0.32,-0.181C0.323,-0.206 0.325,-0.233 0.325,-0.262Z" style="fill:rgb(93,175,0);fill-rule:nonzero;"/>
            </g>
            <g transform="matrix(58.333333,0,0,58.333333,119.800433,152.625864)">
                <path d="M0.151,-0.061C0.176,-0.061 0.196,-0.068 0.208,-0.083C0.222,-0.097 0.228,-0.116 0.228,-0.139C0.228,-0.154 0.225,-0.166 0.22,-0.176C0.215,-0.187 0.208,-0.196 0.199,-0.204C0.19,-0.212 0.18,-0.219 0.169,-0.226C0.158,-0.232 0.146,-0.239 0.135,-0.246C0.124,-0.253 0.113,-0.261 0.102,-0.27C0.091,-0.279 0.082,-0.289 0.073,-0.3C0.065,-0.312 0.058,-0.326 0.053,-0.341C0.048,-0.355 0.046,-0.373 0.046,-0.393C0.046,-0.436 0.059,-0.471 0.087,-0.498C0.114,-0.525 0.15,-0.538 0.196,-0.538C0.215,-0.538 0.234,-0.535 0.251,-0.53C0.268,-0.525 0.283,-0.52 0.294,-0.514L0.275,-0.445C0.263,-0.452 0.251,-0.457 0.239,-0.46C0.227,-0.463 0.214,-0.465 0.2,-0.465C0.179,-0.465 0.162,-0.459 0.149,-0.447C0.136,-0.434 0.13,-0.416 0.13,-0.393C0.13,-0.38 0.132,-0.368 0.137,-0.358C0.142,-0.349 0.148,-0.34 0.155,-0.333C0.163,-0.325 0.172,-0.318 0.181,-0.311C0.191,-0.304 0.201,-0.298 0.212,-0.292C0.225,-0.285 0.237,-0.277 0.249,-0.268C0.262,-0.259 0.273,-0.249 0.283,-0.238C0.292,-0.226 0.3,-0.212 0.306,-0.197C0.312,-0.181 0.315,-0.162 0.315,-0.14C0.315,-0.094 0.302,-0.057 0.275,-0.029C0.248,-0.001 0.208,0.013 0.156,0.013C0.129,0.013 0.105,0.009 0.084,0.002C0.063,-0.005 0.047,-0.012 0.036,-0.018L0.054,-0.089C0.064,-0.084 0.077,-0.078 0.095,-0.071C0.112,-0.064 0.13,-0.061 0.151,-0.061Z" style="fill:rgb(93,175,0);fill-rule:nonzero;"/>
            </g>
            <g transform="matrix(58.333333,0,0,58.333333,139.6921,152.625864)">
                <path d="M0.151,-0.061C0.176,-0.061 0.196,-0.068 0.208,-0.083C0.222,-0.097 0.228,-0.116 0.228,-0.139C0.228,-0.154 0.225,-0.166 0.22,-0.176C0.215,-0.187 0.208,-0.196 0.199,-0.204C0.19,-0.212 0.18,-0.219 0.169,-0.226C0.158,-0.232 0.146,-0.239 0.135,-0.246C0.124,-0.253 0.113,-0.261 0.102,-0.27C0.091,-0.279 0.082,-0.289 0.073,-0.3C0.065,-0.312 0.058,-0.326 0.053,-0.341C0.048,-0.355 0.046,-0.373 0.046,-0.393C0.046,-0.436 0.059,-0.471 0.087,-0.498C0.114,-0.525 0.15,-0.538 0.196,-0.538C0.215,-0.538 0.234,-0.535 0.251,-0.53C0.268,-0.525 0.283,-0.52 0.294,-0.514L0.275,-0.445C0.263,-0.452 0.251,-0.457 0.239,-0.46C0.227,-0.463 0.214,-0.465 0.2,-0.465C0.179,-0.465 0.162,-0.459 0.149,-0.447C0.136,-0.434 0.13,-0.416 0.13,-0.393C0.13,-0.38 0.132,-0.368 0.137,-0.358C0.142,-0.349 0.148,-0.34 0.155,-0.333C0.163,-0.325 0.172,-0.318 0.181,-0.311C0.191,-0.304 0.201,-0.298 0.212,-0.292C0.225,-0.285 0.237,-0.277 0.249,-0.268C0.262,-0.259 0.273,-0.249 0.283,-0.238C0.292,-0.226 0.3,-0.212 0.306,-0.197C0.312,-0.181 0.315,-0.162 0.315,-0.14C0.315,-0.094 0.302,-0.057 0.275,-0.029C0.248,-0.001 0.208,0.013 0.156,0.013C0.129,0.013 0.105,0.009 0.084,0.002C0.063,-0.005 0.047,-0.012 0.036,-0.018L0.054,-0.089C0.064,-0.084 0.077,-0.078 0.095,-0.071C0.112,-0.064 0.13,-0.061 0.151,-0.061Z" style="fill:rgb(93,175,0);fill-rule:nonzero;"/>
            </g>
        </g>
    </g>
    <g transform="matrix(2.5226,0.452189,-0.26486,1.477561,-240.92603,94.175748)">
        <path d="M211,208.275L211,196.725L272.335,196.725L272.335,186L282,202.5L272.335,219L272.335,208.275L211,208.275Z"/>
    </g>
    <g transform="matrix(1.05579,0,0,1.05579,108.184248,310.272644)">
        <path d="M1744,267L249,267C249,267 273.79,299.137 226,259" style="fill:none;"/>
    </g>
    <g transform="matrix(0.421706,0.960389,-0.966701,0.424478,1511.777145,-1011.838776)">
        <path d="M1513,53.55L1513,44.45L1548.915,44.45L1548.915,36L1562,49L1548.915,62L1548.915,53.55L1513,53.55Z"/>
    </g>
    <g transform="matrix(1.05579,0,0,1.05579,-92.415846,-29.691726)">
        <path d="M984,465L984,309L1551,309" style="fill:none;stroke:rgb(93,175,0);stroke-width:15.79px;"/>
    </g>
    <g transform="matrix(1.05579,0,0,1.05579,-92.415846,-29.691726)">
        <path d="M2084,536L1946,468L520,468L1753,468L1722,468L1627,337" style="fill:white;fill-opacity:0;stroke:rgb(93,175,0);stroke-width:15.79px;"/>
    </g>
    <g transform="matrix(-1.418718,-0,0,-4.415122,1082.744374,1985.427398)">
        <path d="M390,346.425L390,342.575L436.884,342.575L436.884,339L454,344.5L436.884,350L436.884,346.425L390,346.425Z" style="fill:rgb(93,175,0);"/>
    </g>
    <g transform="matrix(1.05579,0,0,1.05579,-82.913737,-9.631716)">
        <circle cx="1579" cy="305" r="38" style="fill:white;stroke:rgb(31,77,255);stroke-width:15.79px;"/>
    </g>
    <g transform="matrix(1.05579,0,0,1.05579,-94.527426,-15.966456)">
        <g transform="matrix(75,0,0,75,1569,336)">
            <path d="M0.25,-0.116L0.25,-0.312L0.056,-0.312L0.056,-0.394L0.25,-0.394L0.25,-0.589L0.333,-0.589L0.333,-0.394L0.528,-0.394L0.528,-0.312L0.333,-0.312L0.333,-0.116L0.25,-0.116Z" style="fill:rgb(31,77,255);fill-rule:nonzero;"/>
        </g>
    </g>
    <g transform="matrix(1.05579,0,0,1.05579,-93.471636,-5.408556)">
        <path d="M955,318L955,199L1727,199L1727,318" style="fill:rgb(238,255,204);fill-opacity:0;stroke:black;stroke-width:7.89px;"/>
    </g>
    <g transform="matrix(1.05579,0,0,1.05579,-92.415846,-29.691726)">
        <path d="M1344,222L1344,197" style="fill:none;stroke:black;stroke-width:7.89px;"/>
    </g>
    <g transform="matrix(1.05579,0,0,1.05579,-118.810595,15.707243)">
        <g transform="matrix(66.666667,0,0,66.666667,1189.476296,142.746985)">
            <path d="M0.084,-0.683C0.131,-0.694 0.176,-0.7 0.219,-0.7C0.254,-0.7 0.285,-0.696 0.313,-0.688C0.341,-0.68 0.365,-0.667 0.385,-0.65C0.405,-0.633 0.421,-0.61 0.431,-0.583C0.443,-0.556 0.448,-0.523 0.448,-0.484C0.448,-0.436 0.439,-0.397 0.42,-0.367C0.402,-0.338 0.377,-0.315 0.346,-0.3C0.354,-0.287 0.364,-0.269 0.377,-0.245C0.389,-0.223 0.402,-0.197 0.415,-0.17C0.427,-0.142 0.44,-0.113 0.453,-0.084C0.465,-0.055 0.475,-0.027 0.484,-0L0.394,-0C0.387,-0.02 0.378,-0.043 0.366,-0.068C0.355,-0.093 0.344,-0.119 0.332,-0.144C0.32,-0.169 0.308,-0.193 0.296,-0.215C0.284,-0.239 0.273,-0.258 0.264,-0.274C0.253,-0.273 0.242,-0.272 0.231,-0.271C0.22,-0.27 0.208,-0.27 0.197,-0.27L0.172,-0.27L0.172,-0L0.084,-0L0.084,-0.683ZM0.172,-0.344L0.21,-0.344C0.256,-0.344 0.291,-0.355 0.316,-0.376C0.341,-0.397 0.353,-0.433 0.353,-0.484C0.353,-0.51 0.35,-0.532 0.344,-0.549C0.337,-0.567 0.328,-0.581 0.317,-0.592C0.305,-0.602 0.291,-0.609 0.275,-0.614C0.258,-0.619 0.24,-0.621 0.22,-0.621C0.203,-0.621 0.187,-0.62 0.172,-0.618L0.172,-0.344Z" style="fill-rule:nonzero;"/>
        </g>
        <g transform="matrix(66.666667,0,0,66.666667,1222.409629,142.746985)">
            <path d="M0.137,-0.237C0.138,-0.212 0.14,-0.189 0.144,-0.168C0.148,-0.146 0.154,-0.128 0.164,-0.113C0.172,-0.097 0.184,-0.085 0.2,-0.076C0.214,-0.067 0.234,-0.063 0.257,-0.063C0.276,-0.063 0.294,-0.066 0.31,-0.072C0.327,-0.077 0.339,-0.082 0.346,-0.086L0.362,-0.017C0.353,-0.011 0.339,-0.004 0.319,0.003C0.298,0.009 0.274,0.013 0.246,0.013C0.209,0.013 0.178,0.006 0.153,-0.007C0.129,-0.02 0.108,-0.039 0.092,-0.063C0.077,-0.087 0.066,-0.116 0.059,-0.149C0.052,-0.182 0.049,-0.219 0.049,-0.259C0.049,-0.356 0.065,-0.426 0.097,-0.471C0.129,-0.516 0.171,-0.538 0.224,-0.538C0.283,-0.538 0.325,-0.516 0.35,-0.471C0.375,-0.426 0.387,-0.364 0.387,-0.283L0.387,-0.261C0.387,-0.253 0.387,-0.245 0.386,-0.237L0.137,-0.237ZM0.224,-0.465C0.195,-0.465 0.174,-0.451 0.162,-0.422C0.148,-0.393 0.141,-0.355 0.138,-0.307L0.297,-0.307C0.297,-0.356 0.292,-0.394 0.282,-0.422C0.272,-0.451 0.253,-0.465 0.224,-0.465Z" style="fill-rule:nonzero;"/>
        </g>
        <g transform="matrix(66.666667,0,0,66.666667,1251.476296,142.746985)">
            <path d="M0.151,-0.061C0.176,-0.061 0.196,-0.068 0.208,-0.083C0.222,-0.097 0.228,-0.116 0.228,-0.139C0.228,-0.154 0.225,-0.166 0.22,-0.176C0.215,-0.187 0.208,-0.196 0.199,-0.204C0.19,-0.212 0.18,-0.219 0.169,-0.226C0.158,-0.232 0.146,-0.239 0.135,-0.246C0.124,-0.253 0.113,-0.261 0.102,-0.27C0.091,-0.279 0.082,-0.289 0.073,-0.3C0.065,-0.312 0.058,-0.326 0.053,-0.341C0.048,-0.355 0.046,-0.373 0.046,-0.393C0.046,-0.436 0.059,-0.471 0.087,-0.498C0.114,-0.525 0.15,-0.538 0.196,-0.538C0.215,-0.538 0.234,-0.535 0.251,-0.53C0.268,-0.525 0.283,-0.52 0.294,-0.514L0.275,-0.445C0.263,-0.452 0.251,-0.457 0.239,-0.46C0.227,-0.463 0.214,-0.465 0.2,-0.465C0.179,-0.465 0.162,-0.459 0.149,-0.447C0.136,-0.434 0.13,-0.416 0.13,-0.393C0.13,-0.38 0.132,-0.368 0.137,-0.358C0.142,-0.349 0.148,-0.34 0.155,-0.333C0.163,-0.325 0.172,-0.318 0.181,-0.311C0.191,-0.304 0.201,-0.298 0.212,-0.292C0.225,-0.285 0.237,-0.277 0.249,-0.268C0.262,-0.259 0.273,-0.249 0.283,-0.238C0.292,-0.226 0.3,-0.212 0.306,-0.197C0.312,-0.181 0.315,-0.162 0.315,-0.14C0.315,-0.094 0.302,-0.057 0.275,-0.029C0.248,-0.001 0.208,0.013 0.156,0.013C0.129,0.013 0.105,0.009 0.084,0.002C0.063,-0.005 0.047,-0.012 0.036,-0.018L0.054,-0.089C0.064,-0.084 0.077,-0.078 0.095,-0.071C0.112,-0.064 0.13,-0.061 0.151,-0.061Z" style="fill-rule:nonzero;"/>
        </g>
        <g transform="matrix(66.666667,0,0,66.666667,1274.209629,142.746985)">
            <path d="M0.164,-0L0.078,-0L0.078,-0.525L0.164,-0.525L0.164,-0ZM0.121,-0.618C0.106,-0.618 0.093,-0.623 0.082,-0.634C0.071,-0.644 0.065,-0.658 0.065,-0.675C0.065,-0.692 0.071,-0.706 0.082,-0.717C0.093,-0.727 0.106,-0.732 0.121,-0.732C0.136,-0.732 0.149,-0.727 0.161,-0.717C0.171,-0.706 0.177,-0.692 0.177,-0.675C0.177,-0.658 0.171,-0.644 0.161,-0.634C0.149,-0.623 0.136,-0.618 0.121,-0.618Z" style="fill-rule:nonzero;"/>
        </g>
        <g transform="matrix(66.666667,0,0,66.666667,1290.342962,142.746985)">
            <path d="M0.304,-0.446C0.285,-0.457 0.264,-0.462 0.242,-0.462C0.225,-0.462 0.211,-0.459 0.198,-0.452C0.185,-0.445 0.174,-0.434 0.166,-0.419C0.157,-0.404 0.15,-0.383 0.145,-0.358C0.14,-0.333 0.138,-0.301 0.138,-0.264C0.138,-0.192 0.147,-0.14 0.167,-0.11C0.185,-0.079 0.214,-0.063 0.253,-0.063C0.26,-0.063 0.268,-0.064 0.277,-0.065C0.286,-0.066 0.295,-0.067 0.304,-0.07L0.304,-0.446ZM0.304,-0.761L0.39,-0.776L0.39,-0.014C0.371,-0.006 0.35,0 0.326,0.005C0.302,0.011 0.278,0.013 0.253,0.013C0.181,0.013 0.129,-0.01 0.097,-0.056C0.064,-0.102 0.048,-0.171 0.048,-0.264C0.048,-0.306 0.051,-0.344 0.059,-0.378C0.066,-0.411 0.076,-0.44 0.091,-0.464C0.106,-0.487 0.126,-0.505 0.149,-0.518C0.172,-0.531 0.2,-0.538 0.232,-0.538C0.247,-0.538 0.261,-0.537 0.272,-0.533C0.283,-0.53 0.293,-0.526 0.304,-0.521L0.304,-0.761Z" style="fill-rule:nonzero;"/>
        </g>
        <g transform="matrix(66.666667,0,0,66.666667,1321.476296,142.746985)">
            <path d="M0.403,-0.015C0.394,-0.012 0.384,-0.009 0.371,-0.005C0.359,-0.003 0.346,0 0.333,0.003C0.319,0.005 0.305,0.007 0.291,0.009C0.278,0.01 0.265,0.011 0.254,0.011C0.227,0.011 0.202,0.008 0.179,0.002C0.156,-0.005 0.137,-0.016 0.121,-0.032C0.105,-0.048 0.093,-0.07 0.084,-0.098C0.075,-0.125 0.071,-0.16 0.071,-0.202L0.071,-0.525L0.157,-0.525L0.157,-0.205C0.157,-0.154 0.165,-0.118 0.18,-0.097C0.196,-0.075 0.22,-0.065 0.252,-0.065C0.263,-0.065 0.273,-0.066 0.284,-0.067C0.295,-0.068 0.306,-0.07 0.317,-0.073L0.317,-0.525L0.403,-0.525L0.403,-0.015Z" style="fill-rule:nonzero;"/>
        </g>
        <g transform="matrix(66.666667,0,0,66.666667,1353.476296,142.746985)">
            <path d="M0.086,-0.514C0.103,-0.521 0.122,-0.527 0.141,-0.531C0.16,-0.536 0.181,-0.538 0.204,-0.538C0.251,-0.538 0.289,-0.523 0.318,-0.494C0.347,-0.466 0.362,-0.42 0.362,-0.359L0.362,-0.011C0.338,-0.004 0.314,0.001 0.288,0.005C0.264,0.009 0.239,0.011 0.215,0.011C0.191,0.011 0.168,0.008 0.147,0.002C0.127,-0.004 0.108,-0.014 0.092,-0.027C0.077,-0.04 0.064,-0.057 0.055,-0.077C0.046,-0.098 0.041,-0.123 0.041,-0.152C0.041,-0.179 0.045,-0.203 0.053,-0.224C0.062,-0.244 0.073,-0.261 0.088,-0.275C0.103,-0.288 0.12,-0.298 0.14,-0.305C0.16,-0.312 0.182,-0.316 0.205,-0.316C0.227,-0.316 0.251,-0.313 0.278,-0.308L0.278,-0.356C0.278,-0.395 0.271,-0.422 0.256,-0.437C0.241,-0.452 0.219,-0.46 0.191,-0.46C0.176,-0.46 0.161,-0.459 0.147,-0.456C0.134,-0.452 0.119,-0.448 0.104,-0.441L0.086,-0.514ZM0.127,-0.153C0.127,-0.122 0.135,-0.1 0.151,-0.085C0.167,-0.07 0.19,-0.063 0.219,-0.063C0.237,-0.063 0.257,-0.065 0.278,-0.07L0.278,-0.237C0.258,-0.242 0.238,-0.245 0.219,-0.245C0.206,-0.245 0.194,-0.243 0.183,-0.24C0.172,-0.238 0.162,-0.233 0.153,-0.226C0.145,-0.218 0.139,-0.209 0.134,-0.198C0.129,-0.186 0.127,-0.171 0.127,-0.153Z" style="fill-rule:nonzero;"/>
        </g>
        <g transform="matrix(66.666667,0,0,66.666667,1382.409629,142.746985)">
            <path d="M0.214,0.01C0.165,0.009 0.129,-0.003 0.108,-0.026C0.087,-0.049 0.076,-0.086 0.076,-0.136L0.076,-0.761L0.162,-0.776L0.162,-0.134C0.162,-0.111 0.167,-0.094 0.176,-0.084C0.185,-0.073 0.202,-0.066 0.225,-0.062L0.214,0.01Z" style="fill-rule:nonzero;"/>
        </g>
        <g transform="matrix(66.666667,0,0,66.666667,1411.609629,142.746985)">
            <path d="M0.174,-0.398L0.236,-0.398C0.319,-0.398 0.36,-0.435 0.36,-0.51C0.36,-0.533 0.357,-0.553 0.35,-0.568C0.343,-0.583 0.333,-0.594 0.322,-0.603C0.311,-0.611 0.298,-0.617 0.283,-0.62C0.268,-0.623 0.252,-0.625 0.235,-0.625C0.225,-0.625 0.215,-0.625 0.205,-0.624C0.194,-0.623 0.184,-0.622 0.174,-0.621L0.174,-0.398ZM0.174,-0.326L0.174,-0.076C0.187,-0.074 0.199,-0.072 0.211,-0.071C0.224,-0.07 0.236,-0.069 0.248,-0.069C0.267,-0.069 0.284,-0.071 0.301,-0.075C0.318,-0.079 0.332,-0.086 0.345,-0.095C0.357,-0.104 0.366,-0.117 0.373,-0.134C0.381,-0.15 0.384,-0.17 0.384,-0.194C0.384,-0.235 0.373,-0.268 0.351,-0.291C0.328,-0.314 0.293,-0.326 0.246,-0.326L0.174,-0.326ZM0.084,-0.683C0.107,-0.688 0.131,-0.693 0.155,-0.696C0.18,-0.699 0.204,-0.7 0.228,-0.7C0.258,-0.7 0.287,-0.697 0.314,-0.692C0.341,-0.686 0.364,-0.676 0.385,-0.662C0.406,-0.649 0.422,-0.631 0.434,-0.609C0.447,-0.586 0.453,-0.558 0.453,-0.525C0.453,-0.484 0.444,-0.45 0.427,-0.423C0.41,-0.397 0.387,-0.378 0.36,-0.365C0.394,-0.352 0.422,-0.331 0.444,-0.304C0.466,-0.277 0.477,-0.239 0.477,-0.191C0.477,-0.155 0.471,-0.125 0.46,-0.1C0.448,-0.075 0.431,-0.055 0.41,-0.04C0.389,-0.024 0.363,-0.012 0.334,-0.005C0.304,0.002 0.271,0.005 0.236,0.005C0.213,0.005 0.188,0.004 0.163,0.001C0.138,-0.002 0.111,-0.006 0.084,-0.011L0.084,-0.683Z" style="fill-rule:nonzero;"/>
        </g>
        <g transform="matrix(66.666667,0,0,66.666667,1446.342962,142.746985)">
            <path d="M0.214,0.01C0.165,0.009 0.129,-0.003 0.108,-0.026C0.087,-0.049 0.076,-0.086 0.076,-0.136L0.076,-0.761L0.162,-0.776L0.162,-0.134C0.162,-0.111 0.167,-0.094 0.176,-0.084C0.185,-0.073 0.202,-0.066 0.225,-0.062L0.214,0.01Z" style="fill-rule:nonzero;"/>
        </g>
        <g transform="matrix(66.666667,0,0,66.666667,1462.542962,142.746985)">
            <path d="M0.415,-0.262C0.415,-0.221 0.411,-0.183 0.404,-0.149C0.397,-0.116 0.386,-0.087 0.37,-0.063C0.355,-0.039 0.337,-0.02 0.314,-0.007C0.291,0.006 0.263,0.013 0.232,0.013C0.201,0.013 0.173,0.006 0.15,-0.007C0.127,-0.02 0.107,-0.039 0.092,-0.063C0.077,-0.087 0.066,-0.116 0.059,-0.149C0.052,-0.183 0.048,-0.221 0.048,-0.262C0.048,-0.303 0.052,-0.34 0.059,-0.374C0.066,-0.408 0.077,-0.437 0.092,-0.462C0.107,-0.486 0.127,-0.505 0.15,-0.518C0.173,-0.531 0.201,-0.538 0.232,-0.538C0.263,-0.538 0.291,-0.531 0.314,-0.518C0.337,-0.505 0.355,-0.486 0.37,-0.462C0.386,-0.437 0.397,-0.408 0.404,-0.374C0.411,-0.34 0.415,-0.303 0.415,-0.262ZM0.325,-0.262C0.325,-0.291 0.323,-0.318 0.32,-0.343C0.317,-0.367 0.311,-0.388 0.304,-0.406C0.297,-0.423 0.287,-0.437 0.275,-0.447C0.263,-0.456 0.249,-0.461 0.232,-0.461C0.215,-0.461 0.2,-0.456 0.189,-0.447C0.177,-0.437 0.167,-0.423 0.16,-0.406C0.152,-0.388 0.146,-0.367 0.143,-0.343C0.14,-0.318 0.138,-0.291 0.138,-0.262C0.138,-0.233 0.14,-0.206 0.143,-0.181C0.146,-0.157 0.152,-0.136 0.16,-0.119C0.167,-0.102 0.177,-0.088 0.189,-0.079C0.2,-0.069 0.215,-0.064 0.232,-0.064C0.249,-0.064 0.263,-0.069 0.275,-0.079C0.287,-0.088 0.297,-0.102 0.304,-0.119C0.311,-0.136 0.317,-0.157 0.32,-0.181C0.323,-0.206 0.325,-0.233 0.325,-0.262Z" style="fill-rule:nonzero;"/>
        </g>
        <g transform="matrix(66.666667,0,0,66.666667,1493.409629,142.746985)">
            <path d="M0.238,0.013C0.202,0.013 0.172,0.006 0.148,-0.008C0.124,-0.022 0.104,-0.041 0.089,-0.066C0.074,-0.09 0.064,-0.119 0.058,-0.152C0.051,-0.185 0.048,-0.222 0.048,-0.261C0.048,-0.348 0.064,-0.416 0.096,-0.465C0.127,-0.514 0.175,-0.538 0.239,-0.538C0.258,-0.538 0.276,-0.536 0.291,-0.531C0.306,-0.526 0.321,-0.52 0.334,-0.513L0.312,-0.442C0.291,-0.455 0.268,-0.462 0.243,-0.462C0.207,-0.462 0.18,-0.446 0.164,-0.413C0.146,-0.38 0.138,-0.33 0.138,-0.261C0.138,-0.232 0.14,-0.206 0.143,-0.181C0.146,-0.157 0.152,-0.136 0.161,-0.119C0.169,-0.102 0.18,-0.088 0.194,-0.078C0.207,-0.068 0.225,-0.063 0.246,-0.063C0.261,-0.063 0.274,-0.065 0.286,-0.069C0.297,-0.072 0.308,-0.077 0.319,-0.083L0.338,-0.016C0.327,-0.009 0.313,-0.002 0.295,0.004C0.278,0.01 0.259,0.013 0.238,0.013Z" style="fill-rule:nonzero;"/>
        </g>
        <g transform="matrix(66.666667,0,0,66.666667,1516.942962,142.746985)">
            <path d="M0.403,-0.525C0.375,-0.477 0.348,-0.433 0.323,-0.394C0.297,-0.354 0.271,-0.317 0.246,-0.282C0.262,-0.263 0.278,-0.242 0.295,-0.219C0.312,-0.196 0.328,-0.171 0.343,-0.146C0.358,-0.121 0.373,-0.096 0.386,-0.072C0.399,-0.047 0.411,-0.023 0.42,-0L0.326,-0C0.316,-0.022 0.304,-0.045 0.291,-0.069C0.278,-0.093 0.264,-0.117 0.249,-0.14C0.234,-0.163 0.22,-0.184 0.205,-0.205C0.19,-0.226 0.177,-0.243 0.164,-0.257L0.164,-0L0.078,-0L0.078,-0.761L0.164,-0.776L0.164,-0.299C0.176,-0.315 0.189,-0.333 0.203,-0.353C0.216,-0.373 0.23,-0.393 0.243,-0.414C0.256,-0.434 0.269,-0.454 0.281,-0.473C0.293,-0.492 0.303,-0.51 0.311,-0.525L0.403,-0.525Z" style="fill-rule:nonzero;"/>
        </g>
    </g>
</svg>
